<?xml version="1.0" encoding="UTF-8" standalone="no"?>
<svg
   width="177"
   height="40"
   viewBox="0 0 177 40"
   fill="none"
   version="1.1"
   id="svg25"
   sodipodi:docname="b025e3a2b731fc8de40ebf9b5ac8d69b.svg"
   xmlns:inkscape="http://www.inkscape.org/namespaces/inkscape"
   xmlns:sodipodi="http://sodipodi.sourceforge.net/DTD/sodipodi-0.dtd"
   xmlns="http://www.w3.org/2000/svg"
   xmlns:svg="http://www.w3.org/2000/svg">
  <sodipodi:namedview
     id="namedview27"
     pagecolor="#ffffff"
     bordercolor="#666666"
     borderopacity="1.0"
     inkscape:pageshadow="2"
     inkscape:pageopacity="0.0"
     inkscape:pagecheckerboard="0" />
  <g
     clip-path="url(#clip0_2601_36)"
     id="g18">
    <path
       d="M102.568 19.7353L100.614 21.7378C100.661 22.1766 100.661 22.6659 100.661 23.1047C100.661 30.9206 95.2867 36.9309 85.907 37.3697C84.8327 38.2978 83.8061 39.1275 82.9258 39.7631V2.19938C85.0267 2.19938 86.883 1.51594 88.9333 0C90.6911 1.31906 92.8427 2.0025 95.0898 2.0025C96.4089 2.0025 97.7758 1.75781 99.0948 1.26844L100.805 3.66188C99.1427 5.715 98.3636 8.01 98.3636 10.4034C98.3636 13.5788 99.7811 16.8525 102.565 19.7353H102.568ZM86.8858 17.7806H96.0208C94.8002 15.1425 94.1645 12.7013 94.1645 10.3556C94.1645 8.93812 94.4092 7.47281 94.8002 6.10594C92.747 6.10594 90.843 5.76281 89.0345 4.88531C88.3511 5.27625 87.617 5.52094 86.8858 5.76562V17.7834V17.7806ZM96.4623 23.0091C96.4623 22.5703 96.4623 22.1287 96.4145 21.69H86.8886V33.0722C92.9945 32.6334 96.4623 28.3837 96.4623 23.0091Z"
       fill="white"
       id="path2" />
    <path
       d="M118.619 19.0734C119.871 19.8834 120.757 21.3572 120.757 23.3484V27.5869C120.425 30.0928 118.51 31.7128 115.194 31.7128H108.449V6.65625H114.786C118.47 6.65625 120.349 8.38875 120.644 10.7456V14.9109C120.644 16.6434 119.761 18.0806 118.619 18.9272V19.0734ZM116.555 11.5922C116.445 10.7091 115.818 9.97219 114.454 9.97219H112.463V17.3775H115.374C116.11 16.9359 116.552 16.1259 116.552 15.1303V11.5922H116.555ZM116.701 23.1263C116.701 21.9478 116.186 21.0253 115.413 20.6203H112.465V28.3575H114.53C115.93 28.3575 116.594 27.6206 116.704 26.6981V23.1234L116.701 23.1263Z"
       fill="white"
       id="path4" />
    <path
       d="M132.285 6.65625L135.05 28.6922V31.7128H130.848V29.1337L130.589 26.8866C129.962 26.9962 129.262 27.0328 128.525 27.0328C127.751 27.0328 127.087 26.9962 126.424 26.8866L126.202 29.2069V31.7128H122.039V28.6922L124.801 6.65625H132.282H132.285ZM130.221 23.3456L129.447 16.1963C129.225 14.0222 128.896 10.3012 128.896 10.3012H128.049C128.049 10.3012 127.717 14.0222 127.498 16.1963L126.798 23.3456C127.312 23.4188 127.903 23.4553 128.53 23.4553C129.157 23.4553 129.709 23.4188 130.226 23.3456H130.221Z"
       fill="white"
       id="path6" />
    <path
       d="M149.161 29.1309V31.71H145.513L142.861 21.8719H140.945V31.71H136.707V6.65625H142.861C146.877 6.65625 148.497 8.57156 148.902 10.7091V16.5309C148.902 18.4097 147.833 19.7737 146.691 20.6203L149.161 29.1309ZM140.945 18.3366H143.415C144.042 18.1509 144.593 17.49 144.703 16.7897V11.4094C144.593 10.5994 144.003 10.1184 142.824 10.1184H140.945V18.3366Z"
       fill="white"
       id="path8" />
    <path
       d="M163.129 16.0502H158.891V11.297C158.744 10.743 158.263 9.89641 156.826 9.89641H156.753C155.353 9.89641 154.838 10.743 154.728 11.3336V27.0302C154.838 27.5842 155.355 28.4673 156.753 28.4673H156.826C158.263 28.4673 158.742 27.5842 158.891 27.0667V22.3136H163.129V27.9892C162.834 29.3167 161.692 31.3052 158.744 31.8958C158.708 33.8111 158.044 35.5436 157.085 36.7586H154.284V34.548C154.798 33.9573 155.206 33.0742 155.279 31.9689C152 31.4908 150.748 29.3167 150.453 27.843V10.5236C150.785 8.82766 152.368 6.28516 156.753 6.28516H156.826C161.211 6.28516 162.758 8.79109 163.126 10.3745V16.0502H163.129Z"
       fill="white"
       id="path10" />
    <path
       d="M174.18 6.65625L176.944 28.6922V31.7128H172.742V29.1337L172.484 26.8866C171.856 26.9962 171.156 27.0328 170.419 27.0328C169.646 27.0328 168.982 26.9962 168.318 26.8866L168.096 29.2069V31.7128H163.934V28.6922L166.695 6.65625H174.177H174.18ZM172.118 23.3456L171.345 16.1963C171.122 14.0222 170.793 10.3012 170.793 10.3012H169.947C169.947 10.3012 169.615 14.0222 169.395 16.1963L168.695 23.3456C169.21 23.4188 169.8 23.4553 170.428 23.4553C171.055 23.4553 171.606 23.4188 172.124 23.3456H172.118Z"
       fill="white"
       id="path12" />
    <path
       d="M0 31.7048V6.65109H10.5019L10.0238 10.2258H4.275V17.2992H9.32344V20.8739H4.275V28.133H10.2797V31.7077H0V31.7048ZM11.4609 23.9311H15.66V27.652C15.9187 28.0205 16.4334 28.4255 17.5022 28.4255H17.5753C18.8297 28.4255 19.53 27.7983 19.6031 27.2105V24.0408C19.6031 22.6402 19.2347 21.8667 17.0972 20.8345L14.9597 19.8023C12.8222 18.7702 11.6072 17.0377 11.6072 14.5317V10.0008C11.9025 8.45391 13.4859 6.31641 17.7244 6.31641H17.7975C21.3722 6.31641 22.9922 7.68047 23.7319 8.78578V14.1295H19.53V10.7405C19.3444 10.3355 18.7566 9.93047 17.7609 9.93047H17.6878C16.6556 9.93047 15.9919 10.4086 15.8822 10.853V13.7639C15.8822 14.8692 15.9919 15.8283 18.1294 16.8577L20.2669 17.8898C22.4044 18.922 23.8781 20.3227 23.8781 23.7117V28.133C23.5463 29.6798 22.0725 32.0395 17.4656 32.0395H17.3925C13.9641 32.0395 12.1584 30.6023 11.4609 29.5336V23.9339V23.9311ZM25.6838 31.7048V6.65109H32.2791C36.3684 6.65109 37.5862 8.67891 37.8787 10.5942V19.0683C37.62 21.5742 35.7778 23.048 33.7894 23.3798H29.9587V31.7077H25.6838V31.7048ZM29.9587 20.0245H32.1694C32.8697 19.8783 33.4969 19.5464 33.6431 18.4411V11.4773C33.4969 10.777 33.0159 10.2258 31.7644 10.2258H29.9587V20.0273V20.0245ZM48.1613 6.65109L50.9259 28.687V31.7077H46.7241V29.1286L46.4653 26.8814C45.8381 26.9911 45.1378 27.0277 44.4009 27.0277C43.6275 27.0277 42.9637 26.9911 42.3 26.8814L42.0778 29.2017V31.7077H37.9153V28.687L40.6772 6.65109H48.1584H48.1613ZM46.0969 23.3405L45.3234 16.1911C45.1012 14.017 44.7722 10.2961 44.7722 10.2961H43.9256C43.9256 10.2961 43.5938 14.017 43.3744 16.1911L42.6741 23.3405C43.1887 23.4136 43.7794 23.4502 44.4066 23.4502C45.0337 23.4502 45.585 23.4136 46.1025 23.3405H46.0969ZM57.4453 6.65109H53.1703V31.7077H57.4453V6.65109Z"
       fill="white"
       id="path14" />
    <path
       d="M76.9173 0C78.3348 1.36688 79.2123 1.85625 79.9942 2.19938V6.35063C79.0183 6.35063 77.6486 5.715 76.8189 4.88531C75.0105 5.76563 73.1064 6.10594 71.0533 6.10594C71.4442 7.47281 71.6889 8.93812 71.6889 10.3556C71.6889 12.7013 71.0533 15.1425 69.8327 17.7806H79.9436V21.69H69.4417C69.3939 22.0809 69.3939 22.5197 69.3939 22.9613C69.3939 28.3359 72.8617 32.6334 79.9942 33.1228V37.3725C70.5667 36.9338 65.192 30.9234 65.192 23.1075C65.192 22.6688 65.192 22.1794 65.2398 21.7406L63.2852 19.7381C66.0695 16.8553 67.487 13.5816 67.487 10.4062C67.487 8.01281 66.7052 5.71781 65.0458 3.66469L66.7558 1.27125C68.0748 1.76063 69.4417 2.00531 70.7608 2.00531C73.008 2.00531 75.1567 1.32187 76.9173 0.0028125V0Z"
       fill="white"
       id="path16" />
  </g>
  <defs
     id="defs23">
    <clipPath
       id="clip0_2601_36">
      <rect
         width="176.946"
         height="39.7659"
         fill="white"
         id="rect20" />
    </clipPath>
  </defs>
</svg>
