<svg width="326" height="422" viewBox="0 0 326 422" fill="none" xmlns="http://www.w3.org/2000/svg">
<path d="M417.426 209.448L396.681 230.7C397.189 235.356 397.189 240.55 397.189 245.207C397.189 328.156 340.148 391.942 240.603 396.599C229.201 406.449 218.306 415.254 208.963 422V23.3416C231.26 23.3416 250.96 16.0884 272.72 0C291.375 13.999 314.209 21.2522 338.058 21.2522C352.057 21.2522 366.564 18.6554 380.563 13.4617L398.711 38.8629C381.07 60.6524 372.802 85.0089 372.802 110.41C372.802 144.109 387.846 178.853 417.396 209.448H417.426ZM250.99 188.703H347.938C334.984 160.705 328.238 134.796 328.238 109.903C328.238 94.859 330.835 79.3078 334.984 64.8014C313.195 64.8014 292.987 61.1599 273.794 51.8471C266.541 55.996 258.751 58.5929 250.99 61.1897V188.733V188.703ZM352.625 244.192C352.625 239.535 352.625 234.849 352.117 230.193H251.02V350.99C315.821 346.334 352.625 301.232 352.625 244.192Z" fill="url(#paint0_linear_607_3007)"/>
<path d="M145.223 0C160.267 14.5064 169.58 19.7001 177.878 23.3416V67.3982C167.52 67.3982 152.984 60.6524 144.179 51.8471C124.986 61.1897 104.779 64.8014 82.989 64.8014C87.138 79.3078 89.7348 94.859 89.7348 109.903C89.7348 134.796 82.989 160.705 70.0347 188.703H177.341V230.193H65.8858C65.3783 234.342 65.3784 238.998 65.3784 243.684C65.3784 300.725 102.182 346.334 177.878 351.527V396.629C77.8252 391.972 20.7845 328.186 20.7845 245.236C20.7845 240.58 20.7845 235.386 21.2919 230.73L0.547119 209.478C30.0973 178.883 45.141 144.139 45.141 110.44C45.141 85.0388 36.843 60.6823 19.2323 38.8928L37.3803 13.4916C51.3793 18.6852 65.8858 21.2821 79.8848 21.2821C103.734 21.2821 126.538 14.0289 145.223 0.0298486V0Z" fill="url(#paint1_linear_607_3007)"/>
<defs>
<linearGradient id="paint0_linear_607_3007" x1="572.744" y1="490.489" x2="83.6396" y2="-191.734" gradientUnits="userSpaceOnUse">
<stop offset="0.269795" stop-color="#0068FF"/>
<stop offset="0.855519" stop-color="#FF0038"/>
</linearGradient>
<linearGradient id="paint1_linear_607_3007" x1="310" y1="461" x2="-162.5" y2="-135.5" gradientUnits="userSpaceOnUse">
<stop offset="0.0888715" stop-color="#0068FF"/>
<stop offset="0.734425" stop-color="#FF0038"/>
</linearGradient>
</defs>
</svg>
