<svg width="433" height="433" viewBox="0 0 433 433" fill="none" xmlns="http://www.w3.org/2000/svg">
<path d="M432.449 216C432.449 335.294 335.743 432 216.449 432C97.1557 432 0.449219 335.294 0.449219 216C0.449219 96.7065 97.1557 0 216.449 0C335.743 0 432.449 96.7065 432.449 216ZM86.8492 216C86.8492 287.576 144.873 345.6 216.449 345.6C288.025 345.6 346.049 287.576 346.049 216C346.049 144.424 288.025 86.4 216.449 86.4C144.873 86.4 86.8492 144.424 86.8492 216Z" fill="black"/>
<path d="M211.953 0.0468929C178.73 0.739272 146.115 9.08744 116.646 24.4419C87.1764 39.7963 61.6469 61.7429 42.0436 88.5743L111.807 139.545C123.569 123.446 138.887 110.278 156.569 101.065C174.25 91.8525 193.819 86.8436 213.753 86.4281L211.953 0.0468929Z" fill="#FFF900"/>
<path d="M42.1977 88.3689C12.4587 128.972 -2.16823 178.685 0.842681 228.924C3.85359 279.163 24.3133 326.773 58.6888 363.533L121.796 304.521C101.17 282.464 88.8945 253.898 87.0879 223.755C85.2814 193.612 94.0576 163.784 111.901 139.422L42.1977 88.3689Z" fill="#B0B0B0"/>
<path d="M58.6216 363.481C81.8706 388.366 110.674 407.4 142.681 419.032C174.688 430.663 208.992 434.561 242.793 430.409L232.258 344.654C211.977 347.145 191.395 344.806 172.191 337.827C152.986 330.848 135.704 319.428 121.755 304.497L58.6216 363.481Z" fill="white"/>
<path d="M242.082 430.488C297.296 423.889 347.838 396.251 383.188 353.326C418.537 310.4 435.97 255.496 431.858 200.041L345.694 206.43C348.162 239.703 337.702 272.646 316.492 298.401C295.283 324.156 264.957 340.739 231.829 344.699L242.082 430.488Z" fill="#0068FF"/>
<path d="M431.868 200.227C427.806 144.768 402.512 93.0126 361.251 55.7336C319.991 18.4546 265.943 -1.47568 210.358 0.0914885L212.793 86.4572C246.144 85.5168 278.573 97.475 303.329 119.842C328.085 142.21 343.262 173.263 345.699 206.538L431.868 200.227Z" fill="#F21941"/>
</svg>
